<svg id="outline-domain-24px" xmlns="http://www.w3.org/2000/svg" viewBox="0 0 24 24">
  <defs>
    <style>
      .cls-1 {
        fill: none;
      }

      .cls-2 {
        fill: #b4b4b4;
      }
    </style>
  </defs>
  <path id="Path_77" data-name="Path 77" class="cls-1" d="M0,0H24V24H0Z"/>
  <path id="Path_78" data-name="Path 78" class="cls-2" d="M12,7V3H2V21H22V7ZM6,19H4V17H6Zm0-4H4V13H6Zm0-4H4V9H6ZM6,7H4V5H6Zm4,12H8V17h2Zm0-4H8V13h2Zm0-4H8V9h2Zm0-4H8V5h2ZM20,19H12V17h2V15H12V13h2V11H12V9h8Zm-2-8H16v2h2Zm0,4H16v2h2Z" transform="translate(-2 1)"/>
</svg>
