<svg xmlns="http://www.w3.org/2000/svg" viewBox="0 0 24 24">
  <defs>
    <style>
      .cls-1, .cls-2 {
        fill: none;
      }

      .cls-2 {
        opacity: 0.87;
      }

      .cls-3 {
        fill: #c7ae83;
      }
    </style>
  </defs>
  <g id="outline-lock-24px" transform="translate(337 66)">
    <g id="Group_2" data-name="Group 2" transform="translate(-337 -66)">
      <path id="Path_66" data-name="Path 66" class="cls-1" d="M0,0H24V24H0Z"/>
      <path id="Path_67" data-name="Path 67" class="cls-2" d="M0,0H24V24H0Z"/>
    </g>
    <path id="Path_68" data-name="Path 68" class="cls-3" d="M18,8H17V6A5,5,0,0,0,7,6V8H6a2.006,2.006,0,0,0-2,2V20a2.006,2.006,0,0,0,2,2H18a2.006,2.006,0,0,0,2-2V10A2.006,2.006,0,0,0,18,8ZM9,6a3,3,0,0,1,6,0V8H9Zm9,14H6V10H18Zm-6-3a2,2,0,1,0-2-2A2.006,2.006,0,0,0,12,17Z" transform="translate(-337 -66)"/>
  </g>
</svg>
