<svg id="outline-account_box-24px" xmlns="http://www.w3.org/2000/svg" viewBox="0 0 24 24">
  <defs>
    <style>
      .cls-1 {
        fill: none;
      }

      .cls-2 {
        fill: #c1b383;
      }
    </style>
  </defs>
  <path id="Path_2079" data-name="Path 2079" class="cls-1" d="M0,0H24V24H0Z"/>
  <path id="Path_2080" data-name="Path 2080" class="cls-2" d="M19,5V19H5V5H19m0-2H5A2,2,0,0,0,3,5V19a2,2,0,0,0,2,2H19a2.006,2.006,0,0,0,2-2V5A2.006,2.006,0,0,0,19,3Zm-7,9a3,3,0,1,1,3-3A3.009,3.009,0,0,1,12,12Zm0-4a1,1,0,1,0,1,1A1,1,0,0,0,12,8Zm6,10H6V16.47c0-2.5,3.97-3.58,6-3.58s6,1.08,6,3.58ZM8.31,16h7.38A7.011,7.011,0,0,0,12,14.88,6.982,6.982,0,0,0,8.31,16Z"/>
</svg>
