<svg id="Capa_1" data-name="Capa 1" xmlns="http://www.w3.org/2000/svg" viewBox="0 0 740.96 135.38"><defs><style>.cls-1{fill:#c3b381;}.cls-2{fill:#9e2523;}</style></defs><title>Mesa de trabajo 1</title><path class="cls-1" d="M81.4,89.14c-3.81-3.8-5.57-8.67-5.05-12.76,4.09-.52,9,1.24,12.77,5a54.31,54.31,0,0,1,13,20.38A48.39,48.39,0,0,0,116,71.31a80,80,0,0,1-25.74,4.17c-7.69,0-14.4-3.13-18-7.78,3.59-4.66,10.3-7.8,18-7.8A79.72,79.72,0,0,1,116,64.09a48.38,48.38,0,0,0-14-30.62,54.43,54.43,0,0,1-13,20.27c-3.8,3.8-8.68,5.57-12.76,5-.53-4.09,1.24-9,5-12.76a54.4,54.4,0,0,1,20.27-13,48.39,48.39,0,0,0-30.44-13.8A79.9,79.9,0,0,1,75.37,45c0,7.69-3.14,14.39-7.79,18-4.66-3.6-7.79-10.3-7.79-18A79.76,79.76,0,0,1,64,19.27,48.39,48.39,0,0,0,33.47,33.13,54.52,54.52,0,0,1,53.68,46.07c3.8,3.8,5.57,8.68,5,12.76-4.08.53-9-1.24-12.76-5A54.42,54.42,0,0,1,33,33.58a48.38,48.38,0,0,0-13.86,30.5A79.89,79.89,0,0,1,44.9,59.9c7.7,0,14.41,3.13,18,7.79-3.59,4.66-10.3,7.79-18,7.79A79.83,79.83,0,0,1,19.17,71.3,48.37,48.37,0,0,0,33,101.79,54.38,54.38,0,0,1,46,81.47c3.8-3.8,8.67-5.57,12.76-5.05.52,4.09-1.24,9-5,12.77a54.35,54.35,0,0,1-20.33,13A48.38,48.38,0,0,0,64,116.09a79.78,79.78,0,0,1-4.18-25.72c0-7.7,3.14-14.4,7.79-18,4.65,3.59,7.79,10.29,7.79,18a79.83,79.83,0,0,1-4.18,25.72,48.38,48.38,0,0,0,30.6-13.95,54.43,54.43,0,0,1-20.38-13"/><path class="cls-2" d="M71.18,19.27a70.73,70.73,0,0,0-3.6-8.71A70.44,70.44,0,0,0,64,19.27c1.19-.09,2.39-.14,3.6-.14s2.41.06,3.6.14"/><path class="cls-2" d="M116,71.31a70.47,70.47,0,0,0,8.71-3.61A69.7,69.7,0,0,0,116,64.09c.09,1.19.15,2.38.15,3.59s-.06,2.43-.15,3.63"/><path class="cls-2" d="M64,116.09a70.91,70.91,0,0,0,3.61,8.73,70.14,70.14,0,0,0,3.6-8.73c-1.19.09-2.39.15-3.61.15s-2.42-.06-3.61-.15"/><path class="cls-2" d="M19.17,64.08a70.74,70.74,0,0,0-8.72,3.61,69.85,69.85,0,0,0,8.72,3.61c-.09-1.2-.15-2.4-.15-3.61s.06-2.41.15-3.6"/><path class="cls-1" d="M33.15,33.44l.16-.16-.18,0a1.68,1.68,0,0,1,0,.18"/><path class="cls-1" d="M33.15,33.44h0l.17-.16h0l-.16.16"/><path class="cls-1" d="M33,101.79c-.07.2-.15.39-.22.59l.59-.22-.37-.37m.13.34c0-.05,0-.11,0-.17l.16.15-.18,0"/><path class="cls-1" d="M33.15,102.13l.18,0-.16-.15c0,.06,0,.12,0,.17"/><path class="cls-1" d="M101.78,102.15l.53.2c-.06-.18-.14-.36-.2-.53l-.33.34m.23,0h-.18L102,102a1.26,1.26,0,0,1,0,.17"/><path class="cls-1" d="M102,102.13a1.26,1.26,0,0,0,0-.17l-.16.16H102"/><path class="cls-2" d="M177.45,82.95V21.17H203.8q17.62,0,17.62,14.82,0,12-17.24,17.84l21.21,29.12H214.85L195.2,55.17V49.94q17.71-2.81,17.71-13.61,0-8.55-9.85-8.55H185.44V82.95Z"/><path class="cls-2" d="M262.25,62.56H231.71q0,13.91,17.54,13.91a56.56,56.56,0,0,0,12-1.3v6.48a70.4,70.4,0,0,1-14.6,1.3q-22.94,0-22.94-23.2,0-22.16,21.73-22.16,20.82,0,16.81,25M231.71,55.9h23.24Q255.55,44,244.15,44q-11.66,0-12.44,11.92"/><path class="cls-2" d="M309.68,80.23q-8.25,2.72-20.35,2.72-20.26,0-20.26-23.59,0-21.77,21.51-21.77a28.79,28.79,0,0,1,11.1,2.16V21.17h8Zm-8-33.39a25.13,25.13,0,0,0-11.06-2.33q-13.69,0-13.69,14.55,0,17.24,13.69,17.24a33.5,33.5,0,0,0,11.06-1.68Z"/><path class="cls-2" d="M318.82,82.95V21.17h26.35q17.62,0,17.62,14.39,0,10.54-11.49,15.08,12.26,2.29,12.27,14,0,18.28-19.31,18.28Zm25-6.48q11.06,0,11.06-11.23,0-10.92-14.82-10.93h-3.45V49.08q17.71-2.38,17.71-12.79,0-8.64-9.85-8.64H326.81V76.47Z"/><path class="cls-2" d="M409.2,37.59V82.95h-5.48l-1.38-5.79q-8.25,5.79-16.59,5.79-15.64,0-15.64-16.89V37.59h8v28.6q0,10.11,10,10.11,6.86,0,13.09-5.75v-33Z"/><path class="cls-2" d="M455,62.56H424.45q0,13.91,17.54,13.91a56.59,56.59,0,0,0,12-1.3v6.48a70.42,70.42,0,0,1-14.6,1.3q-22.94,0-22.94-23.2,0-22.16,21.73-22.16,20.82,0,16.8,25M424.45,55.9h23.24Q448.3,44,436.89,44q-11.67,0-12.44,11.92"/><path class="cls-2" d="M464,82.95V37.59h5.4l1.42,5.79q8.25-5.79,16.59-5.79,15.68,0,15.68,16.89V82.95h-8V54.35q0-10.11-10.06-10.11-6.87,0-13,5.75v33Z"/><path class="cls-2" d="M510.34,68.82q0-14,18.4-14a71.32,71.32,0,0,1,11.84.86V51.46q0-7.39-12.23-7.39A50.62,50.62,0,0,0,514,46.23V39.75a50.69,50.69,0,0,1,14.34-2.16q20.22,0,20.22,14.51V82.95h-4.06l-3.2-3.2a28.83,28.83,0,0,1-13.91,3.2q-17.06,0-17.06-14.12m18.4-7.48q-10.41,0-10.41,7.34,0,7.78,9.07,7.78,8.3,0,13.18-3.54V62.21a67.78,67.78,0,0,0-11.84-.87"/><polygon class="cls-2" points="606.66 21.17 580.43 82.95 571.58 82.95 545.23 21.17 553.65 21.17 576.29 74.66 598.36 21.17 606.66 21.17"/><path class="cls-2" d="M618.67,27.65h-8V21.17h8Zm0,55.3h-8V37.59h8Z"/><path class="cls-2" d="M628.09,80.79V73.88a48.09,48.09,0,0,0,15.73,2.59q10.84,0,10.84-6.48,0-6-7.13-6h-7.34q-14.26,0-14.26-13.39,0-13,18.88-13a56.83,56.83,0,0,1,15.68,2.16v6.91a48.06,48.06,0,0,0-15.68-2.59q-11.32,0-11.32,6.48,0,6,6.7,6h7.34q15.12,0,15.12,13.39,0,13-18.83,13a56.92,56.92,0,0,1-15.73-2.16"/><path class="cls-2" d="M669.91,30.24h5l1.73,7.35h10.54v6.48H677.9v26q0,6.35,5.48,6.35h3.8v6.48h-5.87q-11.4,0-11.4-12.23Z"/><path class="cls-2" d="M692.29,68.82q0-14,18.4-14a71.29,71.29,0,0,1,11.83.86V51.46q0-7.39-12.22-7.39A50.64,50.64,0,0,0,696,46.23V39.75a50.71,50.71,0,0,1,14.34-2.16q20.21,0,20.22,14.51V82.95h-4.06l-3.2-3.2a28.82,28.82,0,0,1-13.91,3.2q-17.06,0-17.06-14.12m18.4-7.48q-10.42,0-10.41,7.34,0,7.78,9.07,7.78,8.3,0,13.18-3.54V62.21a67.72,67.72,0,0,0-11.83-.87"/><path class="cls-1" d="M355.1,117v-3.1a17.92,17.92,0,0,0,6.29,1q4.26,0,4.26-2.85,0-2.07-2.62-2.07h-3.16q-5.68,0-5.68-5.18,0-5.69,8.09-5.69a18.92,18.92,0,0,1,5.89.9v3.11a16.77,16.77,0,0,0-5.89-1q-4.66,0-4.66,2.72,0,2.07,2.25,2.07H363q6,0,6,5.17,0,5.83-7.69,5.83a20.11,20.11,0,0,1-6.29-.91"/><path class="cls-1" d="M373.8,108.58q0-9.41,9.29-9.41t9.15,9.41q0,9.36-9.15,9.36-8.88,0-9.29-9.36m9.29,6.38q5.6,0,5.59-6.46t-5.59-6.36q-5.73,0-5.73,6.36t5.73,6.46"/><path class="cls-1" d="M412.89,117a15.17,15.17,0,0,1-5.44.91q-10,0-10-9.64,0-9.13,10-9.12a15.31,15.31,0,0,1,5.44.9v3.11a12.93,12.93,0,0,0-5.18-1q-6.67,0-6.67,6.15,0,6.66,6.67,6.67a12.89,12.89,0,0,0,5.18-1Z"/><rect class="cls-1" x="418.77" y="99.3" width="3.43" height="18.51"/><polygon class="cls-1" points="427.12 117.81 434.98 99.3 438.67 99.3 446.69 117.81 443 117.81 440.68 112.76 434.75 112.76 435.92 109.79 439.77 109.79 436.74 102.83 430.64 117.81 427.12 117.81"/><polygon class="cls-1" points="455.04 99.3 455.04 114.83 463.69 114.83 463.69 117.81 451.61 117.81 451.61 99.3 455.04 99.3"/><path class="cls-1" d="M491.51,117a15.15,15.15,0,0,1-5.43.91q-10,0-10-9.64,0-9.13,10-9.12a15.29,15.29,0,0,1,5.43.9v3.11a12.92,12.92,0,0,0-5.18-1q-6.67,0-6.67,6.15,0,6.66,6.67,6.67a12.88,12.88,0,0,0,5.18-1Z"/><polygon class="cls-1" points="500.83 99.3 500.83 114.83 509.47 114.83 509.47 117.81 497.39 117.81 497.39 99.3 500.83 99.3"/><path class="cls-1" d="M515.36,110.54V99.3h3.43v11.23q0,4.43,4.53,4.43t4.53-4.43V99.3h3.43v11.23q0,7.41-8,7.41t-8-7.41"/><path class="cls-1" d="M537.81,117.81V99.3h8.67q5.28,0,5.28,4.31,0,3.16-3.44,4.52,3.67.69,3.67,4.2,0,5.48-5.79,5.48Zm8.26-3a2,2,0,0,0,2.28-2.33q0-2.89-3.4-2.88h-1v-2.21q4.27-.71,4.27-3.57,0-1.56-1.91-1.55h-5v12.56Z"/></svg>