<svg id="Capa_1" data-name="Capa 1" xmlns="http://www.w3.org/2000/svg" viewBox="0 0 746.96 131.94"><defs><style>.cls-1{fill:#9e2523;}.cls-2{fill:#c3b381;}.cls-3{fill:#fff;}</style></defs><title> copia</title><rect class="cls-1" x="-16.5" y="-27.03" width="779.96" height="185.99"/><path class="cls-2" d="M84.4,87.42c-3.81-3.8-5.57-8.67-5.05-12.76,4.09-.52,9,1.24,12.77,5a54.31,54.31,0,0,1,13,20.38A48.39,48.39,0,0,0,119,69.59a80,80,0,0,1-25.74,4.17c-7.69,0-14.4-3.13-18-7.78,3.59-4.66,10.3-7.8,18-7.8A79.72,79.72,0,0,1,119,62.37a48.38,48.38,0,0,0-14-30.62A54.43,54.43,0,0,1,92.07,52c-3.8,3.8-8.68,5.57-12.76,5-.53-4.09,1.24-9,5-12.76a54.39,54.39,0,0,1,20.27-13,48.39,48.39,0,0,0-30.44-13.8A79.9,79.9,0,0,1,78.37,43.3c0,7.69-3.14,14.39-7.79,18-4.66-3.6-7.79-10.3-7.79-18A79.76,79.76,0,0,1,67,17.55,48.38,48.38,0,0,0,36.47,31.41,54.52,54.52,0,0,1,56.68,44.35c3.8,3.8,5.57,8.68,5,12.76-4.08.53-9-1.24-12.76-5A54.42,54.42,0,0,1,36,31.85a48.38,48.38,0,0,0-13.86,30.5A79.89,79.89,0,0,1,47.9,58.18c7.7,0,14.41,3.13,18,7.79-3.59,4.66-10.3,7.79-18,7.79a79.83,79.83,0,0,1-25.73-4.18A48.37,48.37,0,0,0,36,100.07,54.38,54.38,0,0,1,49,79.75c3.8-3.8,8.67-5.57,12.76-5.05.52,4.09-1.24,9-5,12.77a54.35,54.35,0,0,1-20.33,13A48.38,48.38,0,0,0,67,114.37a79.78,79.78,0,0,1-4.18-25.72c0-7.7,3.14-14.4,7.79-18,4.65,3.59,7.79,10.29,7.79,18a79.83,79.83,0,0,1-4.18,25.72,48.38,48.38,0,0,0,30.6-13.95,54.43,54.43,0,0,1-20.38-13"/><path class="cls-3" d="M74.18,17.55a70.72,70.72,0,0,0-3.6-8.71A70.43,70.43,0,0,0,67,17.55c1.19-.09,2.39-.14,3.6-.14s2.41.06,3.6.14"/><path class="cls-3" d="M119,69.59A70.44,70.44,0,0,0,127.7,66,69.71,69.71,0,0,0,119,62.37c.09,1.19.15,2.38.15,3.59s-.06,2.43-.15,3.63"/><path class="cls-3" d="M67,114.37a70.92,70.92,0,0,0,3.61,8.73,70.14,70.14,0,0,0,3.6-8.73c-1.19.09-2.39.15-3.61.15s-2.42-.06-3.61-.15"/><path class="cls-3" d="M22.17,62.36A70.75,70.75,0,0,0,13.44,66a69.86,69.86,0,0,0,8.72,3.61c-.09-1.2-.15-2.4-.15-3.61s.06-2.41.15-3.6"/><path class="cls-2" d="M36.15,31.71l.16-.16-.18,0a1.67,1.67,0,0,1,0,.18"/><path class="cls-2" d="M36.15,31.71h0l.17-.16h0l-.16.16"/><path class="cls-2" d="M36,100.07c-.07.2-.15.39-.22.59l.59-.22-.37-.37m.13.34c0-.05,0-.11,0-.17l.16.15-.18,0"/><path class="cls-2" d="M36.15,100.4l.18,0-.16-.15c0,.06,0,.12,0,.17"/><path class="cls-2" d="M104.78,100.42l.53.2c-.06-.18-.14-.36-.2-.53l-.33.34m.23,0h-.18l.16-.16a1.26,1.26,0,0,1,0,.17"/><path class="cls-2" d="M105,100.4a1.26,1.26,0,0,0,0-.17l-.16.16H105"/><path class="cls-3" d="M180.45,81.23V19.45H206.8q17.62,0,17.62,14.82,0,12-17.24,17.84l21.21,29.12H217.85L198.2,53.45V48.22q17.71-2.81,17.71-13.61,0-8.55-9.85-8.55H188.44V81.23Z"/><path class="cls-3" d="M265.25,60.83H234.71q0,13.91,17.54,13.91a56.56,56.56,0,0,0,12-1.3v6.48a70.4,70.4,0,0,1-14.6,1.3q-22.94,0-22.94-23.2,0-22.16,21.73-22.16,20.82,0,16.81,25m-30.54-6.65h23.24q.6-11.92-10.8-11.92-11.66,0-12.44,11.92"/><path class="cls-3" d="M312.68,78.5q-8.25,2.72-20.35,2.72-20.26,0-20.26-23.59,0-21.77,21.51-21.77A28.79,28.79,0,0,1,304.69,38V19.45h8Zm-8-33.39a25.14,25.14,0,0,0-11.06-2.33q-13.69,0-13.69,14.55,0,17.24,13.69,17.24a33.5,33.5,0,0,0,11.06-1.68Z"/><path class="cls-3" d="M321.82,81.23V19.45h26.35q17.62,0,17.62,14.39,0,10.54-11.49,15.08,12.26,2.29,12.27,14,0,18.28-19.31,18.28Zm25-6.48q11.06,0,11.06-11.23,0-10.92-14.82-10.93h-3.45V47.36Q357.29,45,357.29,34.57q0-8.64-9.85-8.64H329.81V74.75Z"/><path class="cls-3" d="M412.2,35.87V81.23h-5.48l-1.38-5.79q-8.25,5.79-16.59,5.79-15.64,0-15.64-16.89V35.87h8v28.6q0,10.11,10,10.11,6.86,0,13.09-5.75v-33Z"/><path class="cls-3" d="M458,60.83H427.45q0,13.91,17.54,13.91a56.59,56.59,0,0,0,12-1.3v6.48a70.42,70.42,0,0,1-14.6,1.3q-22.94,0-22.94-23.2,0-22.16,21.73-22.16,20.82,0,16.8,25m-30.54-6.65h23.24q.61-11.92-10.8-11.92-11.67,0-12.44,11.92"/><path class="cls-3" d="M467,81.23V35.87h5.4l1.42,5.79q8.25-5.79,16.59-5.79,15.68,0,15.68,16.89V81.23h-8V52.63q0-10.11-10.06-10.11-6.87,0-13,5.75v33Z"/><path class="cls-3" d="M513.34,67.1q0-14,18.4-14a71.34,71.34,0,0,1,11.84.86V49.74q0-7.39-12.23-7.39A50.62,50.62,0,0,0,517,44.5V38a50.69,50.69,0,0,1,14.34-2.16q20.22,0,20.22,14.51V81.23h-4.06l-3.2-3.2a28.83,28.83,0,0,1-13.91,3.2q-17.06,0-17.06-14.12m18.4-7.48q-10.41,0-10.41,7.34,0,7.78,9.07,7.78,8.3,0,13.18-3.54V60.49a67.77,67.77,0,0,0-11.84-.87"/><polygon class="cls-3" points="609.66 19.45 583.43 81.23 574.58 81.23 548.23 19.45 556.65 19.45 579.29 72.93 601.36 19.45 609.66 19.45"/><path class="cls-3" d="M621.67,25.93h-8V19.45h8Zm0,55.29h-8V35.87h8Z"/><path class="cls-3" d="M631.09,79.07V72.15a48.1,48.1,0,0,0,15.73,2.59q10.84,0,10.84-6.48,0-6-7.13-6h-7.34q-14.26,0-14.26-13.39,0-13,18.88-13A56.83,56.83,0,0,1,663.49,38v6.91a48.06,48.06,0,0,0-15.68-2.59q-11.32,0-11.32,6.48,0,6,6.7,6h7.34q15.12,0,15.12,13.39,0,13-18.83,13a56.92,56.92,0,0,1-15.73-2.16"/><path class="cls-3" d="M672.91,28.52h5l1.73,7.35h10.54v6.48H680.9v26q0,6.35,5.48,6.35h3.8v6.48h-5.87q-11.4,0-11.4-12.23Z"/><path class="cls-3" d="M695.29,67.1q0-14,18.4-14a71.3,71.3,0,0,1,11.83.86V49.74q0-7.39-12.22-7.39A50.65,50.65,0,0,0,699,44.5V38a50.72,50.72,0,0,1,14.34-2.16q20.21,0,20.22,14.51V81.23h-4.06l-3.2-3.2a28.82,28.82,0,0,1-13.91,3.2q-17.06,0-17.06-14.12m18.4-7.48q-10.42,0-10.41,7.34,0,7.78,9.07,7.78,8.3,0,13.18-3.54V60.49a67.71,67.71,0,0,0-11.83-.87"/><path class="cls-2" d="M358.1,115.31v-3.1a17.92,17.92,0,0,0,6.29,1q4.26,0,4.26-2.85,0-2.07-2.62-2.07h-3.16q-5.68,0-5.68-5.18,0-5.69,8.09-5.69a18.92,18.92,0,0,1,5.89.9v3.11a16.77,16.77,0,0,0-5.89-1q-4.66,0-4.66,2.72,0,2.07,2.25,2.07H366q6,0,6,5.17,0,5.83-7.69,5.83a20.11,20.11,0,0,1-6.29-.91"/><path class="cls-2" d="M376.8,106.86q0-9.41,9.29-9.41t9.15,9.41q0,9.36-9.15,9.36-8.88,0-9.29-9.36m9.29,6.38q5.6,0,5.59-6.46t-5.59-6.36q-5.73,0-5.73,6.36t5.73,6.46"/><path class="cls-2" d="M415.89,115.31a15.17,15.17,0,0,1-5.44.91q-10,0-10-9.64,0-9.13,10-9.12a15.31,15.31,0,0,1,5.44.9v3.11a12.93,12.93,0,0,0-5.18-1q-6.67,0-6.67,6.15,0,6.66,6.67,6.67a12.89,12.89,0,0,0,5.18-1Z"/><rect class="cls-2" x="421.77" y="97.58" width="3.43" height="18.51"/><polygon class="cls-2" points="430.12 116.09 437.98 97.58 441.67 97.58 449.69 116.09 446 116.09 443.68 111.04 437.75 111.04 438.92 108.06 442.77 108.06 439.74 101.11 433.64 116.09 430.12 116.09"/><polygon class="cls-2" points="458.04 97.58 458.04 113.11 466.69 113.11 466.69 116.09 454.61 116.09 454.61 97.58 458.04 97.58"/><path class="cls-2" d="M494.51,115.31a15.15,15.15,0,0,1-5.43.91q-10,0-10-9.64,0-9.13,10-9.12a15.29,15.29,0,0,1,5.43.9v3.11a12.92,12.92,0,0,0-5.18-1q-6.67,0-6.67,6.15,0,6.66,6.67,6.67a12.88,12.88,0,0,0,5.18-1Z"/><polygon class="cls-2" points="503.83 97.58 503.83 113.11 512.47 113.11 512.47 116.09 500.39 116.09 500.39 97.58 503.83 97.58"/><path class="cls-2" d="M518.36,108.81V97.58h3.43v11.23q0,4.43,4.53,4.43t4.53-4.43V97.58h3.43v11.23q0,7.41-8,7.41t-8-7.41"/><path class="cls-2" d="M540.81,116.09V97.58h8.67q5.28,0,5.28,4.31,0,3.16-3.44,4.52,3.67.69,3.67,4.2,0,5.48-5.79,5.48Zm8.26-3a2,2,0,0,0,2.28-2.33q0-2.89-3.4-2.88h-1v-2.21q4.27-.71,4.27-3.57,0-1.56-1.91-1.55h-5v12.56Z"/></svg>