<svg id="outline-camera_alt-24px" xmlns="http://www.w3.org/2000/svg" viewBox="0 0 24 24">
  <defs>
    <style>
      .cls-1 {
        fill: none;
      }

      .cls-2 {
        fill: #b4b4b4;
      }
    </style>
  </defs>
  <path id="Path_2109" data-name="Path 2109" class="cls-1" d="M0,0H24V24H0Z"/>
  <path id="Path_2110" data-name="Path 2110" class="cls-2" d="M20,4H16.83L15,2H9L7.17,4H4A2.006,2.006,0,0,0,2,6V18a2.006,2.006,0,0,0,2,2H20a2.006,2.006,0,0,0,2-2V6A2.006,2.006,0,0,0,20,4Zm0,14H4V6H8.05L9.88,4h4.24l1.83,2H20ZM12,7a5,5,0,1,0,5,5A5,5,0,0,0,12,7Zm0,8a3,3,0,1,1,3-3A3.009,3.009,0,0,1,12,15Z"/>
</svg>
